<mxfile host="65bd71144e">
    <diagram id="8RIVexM_ap9aTGtdpRZ7" name="Page-1">
        <mxGraphModel dx="1058" dy="1092" grid="1" gridSize="10" guides="1" tooltips="1" connect="1" arrows="1" fold="1" page="1" pageScale="1" pageWidth="850" pageHeight="1100" math="0" shadow="0">
            <root>
                <mxCell id="0"/>
                <mxCell id="1" parent="0"/>
                <mxCell id="16" style="edgeStyle=none;html=1;exitX=0.5;exitY=1;exitDx=0;exitDy=0;entryX=0.5;entryY=0;entryDx=0;entryDy=0;fontSize=21;fontColor=#3333FF;endArrow=open;endFill=0;endSize=15;" edge="1" parent="1" source="2" target="6">
                    <mxGeometry relative="1" as="geometry"/>
                </mxCell>
                <mxCell id="2" value="SOCKET" style="rounded=1;whiteSpace=wrap;html=1;fontSize=21;fontStyle=1;fontColor=#3333FF;strokeColor=#000000;" vertex="1" parent="1">
                    <mxGeometry x="60" y="20" width="120" height="40" as="geometry"/>
                </mxCell>
                <mxCell id="31" style="edgeStyle=orthogonalEdgeStyle;html=1;exitX=0.5;exitY=1;exitDx=0;exitDy=0;entryX=0.5;entryY=0;entryDx=0;entryDy=0;fontSize=21;fontColor=#3333FF;endArrow=open;endFill=0;endSize=15;" edge="1" parent="1" source="5" target="12">
                    <mxGeometry relative="1" as="geometry"/>
                </mxCell>
                <mxCell id="5" value="SOCKET" style="rounded=1;whiteSpace=wrap;html=1;fontSize=21;fontStyle=1;fontColor=#3333FF;strokeColor=#000000;" vertex="1" parent="1">
                    <mxGeometry x="300" y="20" width="120" height="40" as="geometry"/>
                </mxCell>
                <mxCell id="17" style="edgeStyle=none;html=1;exitX=0.5;exitY=1;exitDx=0;exitDy=0;entryX=0.5;entryY=0;entryDx=0;entryDy=0;fontSize=21;fontColor=#3333FF;endArrow=open;endFill=0;endSize=15;" edge="1" parent="1" source="6" target="7">
                    <mxGeometry relative="1" as="geometry"/>
                </mxCell>
                <mxCell id="6" value="BIND" style="rounded=1;whiteSpace=wrap;html=1;fontSize=21;fontStyle=1;fontColor=#3333FF;strokeColor=#000000;" vertex="1" parent="1">
                    <mxGeometry x="60" y="100" width="120" height="40" as="geometry"/>
                </mxCell>
                <mxCell id="18" style="edgeStyle=none;html=1;exitX=0.5;exitY=1;exitDx=0;exitDy=0;entryX=0.5;entryY=0;entryDx=0;entryDy=0;fontSize=21;fontColor=#3333FF;endArrow=open;endFill=0;endSize=15;" edge="1" parent="1" source="7" target="8">
                    <mxGeometry relative="1" as="geometry"/>
                </mxCell>
                <mxCell id="7" value="LISTEN" style="rounded=1;whiteSpace=wrap;html=1;fontSize=21;fontStyle=1;fontColor=#3333FF;strokeColor=#000000;" vertex="1" parent="1">
                    <mxGeometry x="60" y="180" width="120" height="40" as="geometry"/>
                </mxCell>
                <mxCell id="19" style="edgeStyle=none;html=1;exitX=0.5;exitY=1;exitDx=0;exitDy=0;entryX=0.5;entryY=0;entryDx=0;entryDy=0;fontSize=21;fontColor=#3333FF;endArrow=open;endFill=0;endSize=15;" edge="1" parent="1" source="8" target="9">
                    <mxGeometry relative="1" as="geometry"/>
                </mxCell>
                <mxCell id="32" value="handshake" style="edgeStyle=orthogonalEdgeStyle;html=1;exitX=1;exitY=0.5;exitDx=0;exitDy=0;entryX=0;entryY=0.5;entryDx=0;entryDy=0;fontSize=15;fontColor=#000000;endArrow=open;endFill=0;endSize=15;startArrow=open;startFill=0;startSize=15;dashed=1;labelBackgroundColor=none;" edge="1" parent="1" source="8" target="12">
                    <mxGeometry y="20" relative="1" as="geometry">
                        <mxPoint as="offset"/>
                    </mxGeometry>
                </mxCell>
                <mxCell id="8" value="ACCEPT" style="rounded=1;whiteSpace=wrap;html=1;fontSize=21;fontStyle=1;fontColor=#3333FF;strokeColor=#000000;" vertex="1" parent="1">
                    <mxGeometry x="60" y="260" width="120" height="40" as="geometry"/>
                </mxCell>
                <mxCell id="20" style="edgeStyle=none;html=1;exitX=0.5;exitY=1;exitDx=0;exitDy=0;entryX=0.5;entryY=0;entryDx=0;entryDy=0;fontSize=21;fontColor=#3333FF;endArrow=open;endFill=0;endSize=15;" edge="1" parent="1" source="9" target="10">
                    <mxGeometry relative="1" as="geometry"/>
                </mxCell>
                <mxCell id="9" value="RECEIVE" style="rounded=1;whiteSpace=wrap;html=1;fontSize=21;fontStyle=1;fontColor=#3333FF;strokeColor=#000000;" vertex="1" parent="1">
                    <mxGeometry x="60" y="380" width="120" height="40" as="geometry"/>
                </mxCell>
                <mxCell id="23" style="edgeStyle=orthogonalEdgeStyle;html=1;exitX=1;exitY=0.5;exitDx=0;exitDy=0;entryX=0;entryY=0.5;entryDx=0;entryDy=0;fontSize=21;fontColor=#3333FF;endArrow=open;endFill=0;endSize=15;" edge="1" parent="1" source="10" target="14">
                    <mxGeometry relative="1" as="geometry"/>
                </mxCell>
                <mxCell id="24" style="edgeStyle=none;html=1;exitX=0.5;exitY=1;exitDx=0;exitDy=0;entryX=0.5;entryY=0;entryDx=0;entryDy=0;fontSize=21;fontColor=#3333FF;endArrow=open;endFill=0;endSize=15;" edge="1" parent="1" source="10" target="11">
                    <mxGeometry relative="1" as="geometry"/>
                </mxCell>
                <mxCell id="25" style="edgeStyle=orthogonalEdgeStyle;html=1;exitX=0;exitY=0.5;exitDx=0;exitDy=0;entryX=0;entryY=0.5;entryDx=0;entryDy=0;fontSize=21;fontColor=#3333FF;endArrow=open;endFill=0;endSize=15;" edge="1" parent="1" source="10" target="9">
                    <mxGeometry relative="1" as="geometry">
                        <Array as="points">
                            <mxPoint x="20" y="480"/>
                            <mxPoint x="20" y="400"/>
                        </Array>
                    </mxGeometry>
                </mxCell>
                <mxCell id="10" value="SEND" style="rounded=1;whiteSpace=wrap;html=1;fontSize=21;fontStyle=1;fontColor=#3333FF;strokeColor=#000000;" vertex="1" parent="1">
                    <mxGeometry x="60" y="460" width="120" height="40" as="geometry"/>
                </mxCell>
                <mxCell id="11" value="CLOSE" style="rounded=1;whiteSpace=wrap;html=1;fontSize=21;fontStyle=1;fontColor=#3333FF;strokeColor=#000000;" vertex="1" parent="1">
                    <mxGeometry x="60" y="580" width="120" height="40" as="geometry"/>
                </mxCell>
                <mxCell id="29" style="edgeStyle=orthogonalEdgeStyle;html=1;exitX=0.5;exitY=1;exitDx=0;exitDy=0;entryX=0.5;entryY=0;entryDx=0;entryDy=0;fontSize=21;fontColor=#3333FF;endArrow=open;endFill=0;endSize=15;" edge="1" parent="1" source="12" target="13">
                    <mxGeometry relative="1" as="geometry"/>
                </mxCell>
                <mxCell id="12" value="CONNECT" style="rounded=1;whiteSpace=wrap;html=1;fontSize=21;fontStyle=1;fontColor=#3333FF;strokeColor=#000000;" vertex="1" parent="1">
                    <mxGeometry x="300" y="260" width="120" height="40" as="geometry"/>
                </mxCell>
                <mxCell id="22" style="edgeStyle=orthogonalEdgeStyle;html=1;exitX=0;exitY=0.5;exitDx=0;exitDy=0;entryX=1;entryY=0.5;entryDx=0;entryDy=0;fontSize=21;fontColor=#3333FF;endArrow=open;endFill=0;endSize=15;" edge="1" parent="1" source="13" target="9">
                    <mxGeometry relative="1" as="geometry"/>
                </mxCell>
                <mxCell id="28" style="edgeStyle=orthogonalEdgeStyle;html=1;exitX=0.5;exitY=1;exitDx=0;exitDy=0;entryX=0.5;entryY=0;entryDx=0;entryDy=0;fontSize=21;fontColor=#3333FF;endArrow=open;endFill=0;endSize=15;" edge="1" parent="1" source="13" target="14">
                    <mxGeometry relative="1" as="geometry"/>
                </mxCell>
                <mxCell id="13" value="SEND" style="rounded=1;whiteSpace=wrap;html=1;fontSize=21;fontStyle=1;fontColor=#3333FF;strokeColor=#000000;" vertex="1" parent="1">
                    <mxGeometry x="300" y="360" width="120" height="40" as="geometry"/>
                </mxCell>
                <mxCell id="26" style="edgeStyle=orthogonalEdgeStyle;html=1;exitX=1;exitY=0.5;exitDx=0;exitDy=0;entryX=1;entryY=0.5;entryDx=0;entryDy=0;fontSize=21;fontColor=#3333FF;endArrow=open;endFill=0;endSize=15;" edge="1" parent="1" source="14" target="13">
                    <mxGeometry relative="1" as="geometry">
                        <Array as="points">
                            <mxPoint x="460" y="500"/>
                            <mxPoint x="460" y="380"/>
                        </Array>
                    </mxGeometry>
                </mxCell>
                <mxCell id="30" style="edgeStyle=orthogonalEdgeStyle;html=1;exitX=0.5;exitY=1;exitDx=0;exitDy=0;entryX=0.5;entryY=0;entryDx=0;entryDy=0;fontSize=21;fontColor=#3333FF;endArrow=open;endFill=0;endSize=15;" edge="1" parent="1" source="14" target="15">
                    <mxGeometry relative="1" as="geometry"/>
                </mxCell>
                <mxCell id="14" value="&#10;&#10;&lt;span style=&quot;color: rgb(51, 51, 255); font-family: helvetica; font-size: 21px; font-style: normal; font-weight: 700; letter-spacing: normal; text-align: center; text-indent: 0px; text-transform: none; word-spacing: 0px; display: inline; float: none;&quot;&gt;RECEIVE&lt;/span&gt;&#10;&#10;" style="rounded=1;whiteSpace=wrap;html=1;fontSize=21;fontStyle=1;fontColor=#3333FF;strokeColor=#000000;labelBackgroundColor=none;" vertex="1" parent="1">
                    <mxGeometry x="300" y="480" width="120" height="40" as="geometry"/>
                </mxCell>
                <mxCell id="15" value="CLOSE" style="rounded=1;whiteSpace=wrap;html=1;fontSize=21;fontStyle=1;fontColor=#3333FF;strokeColor=#000000;" vertex="1" parent="1">
                    <mxGeometry x="300" y="580" width="120" height="40" as="geometry"/>
                </mxCell>
            </root>
        </mxGraphModel>
    </diagram>
</mxfile>